<svg width="68" height="20" viewBox="0 0 68 20" fill="none" xmlns="http://www.w3.org/2000/svg">
<path d="M9.36 15.438L4.42 16.556L3.822 19H0.338L4.888 0.799999H9.178L13.728 19H10.27L9.36 15.438ZM8.632 12.448L7.046 5.012L5.252 13.202L8.632 12.448ZM15.4184 19V0.799999H19.6304C21.0344 0.799999 22.1784 1.07733 23.0624 1.632C23.9637 2.16933 24.6571 2.87133 25.1424 3.738C25.6451 4.60467 25.9831 5.584 26.1564 6.676C26.3471 7.75067 26.4424 8.82533 26.4424 9.9C26.4424 10.9747 26.3471 12.058 26.1564 13.15C25.9831 14.2247 25.6451 15.1953 25.1424 16.062C24.6571 16.9287 23.9637 17.6393 23.0624 18.194C22.1784 18.7313 21.0344 19 19.6304 19H15.4184ZM19.8124 15.828C20.4537 15.828 20.9824 15.6893 21.3984 15.412C21.8144 15.1347 22.1437 14.7447 22.3864 14.242C22.6464 13.722 22.8197 13.098 22.9064 12.37C23.0104 11.642 23.0624 10.8187 23.0624 9.9C23.0624 8.98133 23.0104 8.158 22.9064 7.43C22.8197 6.68467 22.6464 6.06067 22.3864 5.558C22.1437 5.038 21.8144 4.63933 21.3984 4.362C20.9824 4.08467 20.4537 3.946 19.8124 3.946H18.7984V15.828H19.8124ZM33.9081 14.788L37.1061 0.799999H40.5641L36.0661 19H31.7761L27.2521 0.799999H30.7361L33.9081 14.788Z" fill="black"/>
<path d="M45.4803 0.799999V14.008C45.4803 14.6667 45.671 15.1953 46.0523 15.594C46.4336 15.9927 46.9536 16.192 47.6123 16.192C48.271 16.192 48.8083 15.9927 49.2243 15.594C49.6576 15.1953 49.8743 14.6667 49.8743 14.008V0.799999H53.2543V13.826C53.2543 14.658 53.1156 15.4207 52.8383 16.114C52.5783 16.79 52.2056 17.3707 51.7203 17.856C51.235 18.324 50.6456 18.6967 49.9523 18.974C49.259 19.234 48.479 19.364 47.6123 19.364C46.7803 19.364 46.0263 19.234 45.3503 18.974C44.6743 18.6967 44.0936 18.324 43.6083 17.856C43.123 17.3707 42.7503 16.79 42.4903 16.114C42.2303 15.4207 42.1003 14.658 42.1003 13.826V0.799999H45.4803ZM55.7641 0.799999H62.0041C62.7841 0.799999 63.4948 0.929999 64.1361 1.19C64.7774 1.43267 65.3234 1.788 65.7741 2.256C66.2248 2.70667 66.5714 3.26133 66.8141 3.92C67.0741 4.56133 67.2041 5.28067 67.2041 6.078C67.2041 6.77133 67.0914 7.43 66.8661 8.054C66.6581 8.678 66.3461 9.23267 65.9301 9.718C65.5314 10.2033 65.0461 10.6107 64.4741 10.94C63.9194 11.2693 63.2954 11.5033 62.6021 11.642L59.1441 12.318V19H55.7641V0.799999ZM59.1441 3.946V9.094L61.7961 8.548C62.4028 8.42667 62.8881 8.14067 63.2521 7.69C63.6334 7.23933 63.8241 6.69333 63.8241 6.052C63.8241 5.428 63.6248 4.92533 63.2261 4.544C62.8448 4.14533 62.3421 3.946 61.7181 3.946H59.1441Z" fill="#FF3F62"/>
</svg>
